HIERARCHY
ROOT Hips
{
	OFFSET 0.000000 0.000000 0.000000
	CHANNELS 6 Xposition Yposition Zposition Xrotation Yrotation Zrotation
	JOINT C_ctrl
	{
		OFFSET 0.000000 35.040482 -0.000011
		CHANNELS 3 Xrotation Yrotation Zrotation
		JOINT Bip01
		{
			OFFSET -41.537640 41.789009 -0.000007
			CHANNELS 3 Xrotation Yrotation Zrotation
			JOINT Bip01_Pelvis
			{
				OFFSET -2.462887 0.000000 0.000000
				CHANNELS 3 Xrotation Yrotation Zrotation
				JOINT BN_Tail_01
				{
					OFFSET -11.399368 7.351341 -0.000013
					CHANNELS 3 Xrotation Yrotation Zrotation
					JOINT BN_Tail_02
					{
						OFFSET -11.365196 -0.343025 0.000012
						CHANNELS 3 Xrotation Yrotation Zrotation
						JOINT BN_Tail_03
						{
							OFFSET -15.076256 -0.454979 0.000017
							CHANNELS 3 Xrotation Yrotation Zrotation
							JOINT BN_Tail_04
							{
								OFFSET -17.395691 -0.525002 0.000016
								CHANNELS 3 Xrotation Yrotation Zrotation
								JOINT BN_Tail_05
								{
									OFFSET -16.699837 -0.504005 0.000016
									CHANNELS 3 Xrotation Yrotation Zrotation
									End Site
									{
										OFFSET 0.503998 -16.699829 0.000067
									}
								}
							}
						}
					}
				}
				JOINT Bip01_Spine
				{
					OFFSET 8.297798 5.916809 -0.000020
					CHANNELS 3 Xrotation Yrotation Zrotation
					JOINT Bip01_R_Thigh
					{
						OFFSET -8.297779 -5.916794 10.541781
						CHANNELS 3 Xrotation Yrotation Zrotation
						JOINT Bip01_R_Calf
						{
							OFFSET 5.631542 -22.906792 0.862690
							CHANNELS 3 Xrotation Yrotation Zrotation
							JOINT Bip01_R_HorseLink
							{
								OFFSET -16.984341 -19.231926 -3.555767
								CHANNELS 3 Xrotation Yrotation Zrotation
								JOINT Bip01_R_Foot
								{
									OFFSET 4.290367 -24.783146 0.578056
									CHANNELS 3 Xrotation Yrotation Zrotation
									JOINT Bip01_R_Toe0
									{
										OFFSET 3.561211 -5.815116 0.760802
										CHANNELS 3 Xrotation Yrotation Zrotation
										JOINT Bip01_R_Toe0Nub
										{
											OFFSET 16.135469 0.002017 1.534789
											CHANNELS 3 Xrotation Yrotation Zrotation
											End Site
											{
												OFFSET -0.000002 16.208284 -0.000056
											}
										}
									}
								}
							}
						}
					}
					JOINT Bip01_L_Thigh
					{
						OFFSET -8.297813 -5.916832 -10.541739
						CHANNELS 3 Xrotation Yrotation Zrotation
						JOINT Bip01_L_Calf
						{
							OFFSET 5.631535 -22.906792 -0.862625
							CHANNELS 3 Xrotation Yrotation Zrotation
							JOINT Bip01_L_HorseLink
							{
								OFFSET -16.984318 -19.231949 3.555875
								CHANNELS 3 Xrotation Yrotation Zrotation
								JOINT Bip01_L_Foot
								{
									OFFSET 4.290367 -24.783169 -0.577965
									CHANNELS 3 Xrotation Yrotation Zrotation
									JOINT Bip01_L_Toe0
									{
										OFFSET 3.561245 -5.815111 -0.760799
										CHANNELS 3 Xrotation Yrotation Zrotation
										JOINT Bip01_L_Toe0Nub
										{
											OFFSET 6.574303 -0.000005 -1.538561
											CHANNELS 3 Xrotation Yrotation Zrotation
											End Site
											{
												OFFSET 0.000004 -6.751935 0.000023
											}
										}
									}
								}
							}
						}
					}
					JOINT Bip01_Spine1
					{
						OFFSET 20.556803 -4.626213 -0.000025
						CHANNELS 3 Xrotation Yrotation Zrotation
						JOINT Saddle
						{
							OFFSET 17.608810 18.174690 -0.000143
							CHANNELS 3 Xrotation Yrotation Zrotation
							End Site
							{
								OFFSET -0.000063 -0.000061 -22.448387
							}
						}
						JOINT BN_center
						{
							OFFSET 10.743275 -13.417107 -0.172041
							CHANNELS 3 Xrotation Yrotation Zrotation
							End Site
							{
								OFFSET 22.434088 0.553078 -0.579614
							}
						}
						JOINT Bip01_Spine2
						{
							OFFSET 24.765072 -2.054115 -0.000032
							CHANNELS 3 Xrotation Yrotation Zrotation
							JOINT Handle
							{
								OFFSET 63.735676 16.430748 -16.052464
								CHANNELS 3 Xrotation Yrotation Zrotation
								JOINT IK_Chain01
								{
									OFFSET -4.713058 -6.020439 0.185448
									CHANNELS 3 Xrotation Yrotation Zrotation
									End Site
									{
										OFFSET -0.000023 -0.000023 -7.648071
									}
								}
							}
							JOINT BN_hair04_01
							{
								OFFSET 1.987491 16.256981 -2.049672
								CHANNELS 3 Xrotation Yrotation Zrotation
								JOINT BN_hair04_02
								{
									OFFSET -1.318762 -3.831451 -6.174704
									CHANNELS 3 Xrotation Yrotation Zrotation
									JOINT BN_hair04_03
									{
										OFFSET -0.827490 -5.886627 -5.656666
										CHANNELS 3 Xrotation Yrotation Zrotation
										End Site
										{
											OFFSET -2.658262 5.010620 -5.929780
										}
									}
								}
							}
							JOINT Bip01_Neck
							{
								OFFSET 25.574577 9.433014 -0.000084
								CHANNELS 3 Xrotation Yrotation Zrotation
								JOINT Bip01_R_Clavicle
								{
									OFFSET -16.535652 0.011192 6.705692
									CHANNELS 3 Xrotation Yrotation Zrotation
									JOINT Bip01_R_UpperArm
									{
										OFFSET 20.272621 -12.959984 2.510816
										CHANNELS 3 Xrotation Yrotation Zrotation
										JOINT Bip01_R_Forearm
										{
											OFFSET -13.633509 -15.503704 -0.653585
											CHANNELS 3 Xrotation Yrotation Zrotation
											JOINT Bip01_R_Hand
											{
												OFFSET 2.580030 -27.804676 -1.136415
												CHANNELS 3 Xrotation Yrotation Zrotation
												JOINT Bip01_R_Finger0
												{
													OFFSET -0.281744 -19.659061 -0.398649
													CHANNELS 3 Xrotation Yrotation Zrotation
													JOINT Bip01_Xtra02
													{
														OFFSET 4.152210 -5.712314 0.433813
														CHANNELS 3 Xrotation Yrotation Zrotation
														JOINT Bip01_Xtra02Nub
														{
															OFFSET 15.457960 0.041654 0.507982
															CHANNELS 3 Xrotation Yrotation Zrotation
															End Site
															{
																OFFSET -15.421730 -0.157725 -1.163459
															}
														}
													}
													JOINT Bip01_R_Finger0Nub
													{
														OFFSET 8.362326 -9.718440 -0.143142
														CHANNELS 3 Xrotation Yrotation Zrotation
														End Site
														{
															OFFSET -1.213036 -0.198171 9.872291
														}
													}
												}
											}
										}
									}
								}
								JOINT Bip01_L_Clavicle
								{
									OFFSET -16.535673 0.011162 -6.705583
									CHANNELS 3 Xrotation Yrotation Zrotation
									JOINT Bip01_L_UpperArm
									{
										OFFSET 20.272615 -12.959999 -2.510836
										CHANNELS 3 Xrotation Yrotation Zrotation
										JOINT Bip01_L_Forearm
										{
											OFFSET -13.633495 -15.503681 0.653678
											CHANNELS 3 Xrotation Yrotation Zrotation
											JOINT Bip01_L_Hand
											{
												OFFSET 2.579988 -27.804686 1.136487
												CHANNELS 3 Xrotation Yrotation Zrotation
												JOINT Bip01_L_Finger0
												{
													OFFSET -0.281765 -19.659058 0.398696
													CHANNELS 3 Xrotation Yrotation Zrotation
													JOINT Bip01_Xtra01
													{
														OFFSET 4.083549 -5.738758 -0.666714
														CHANNELS 3 Xrotation Yrotation Zrotation
														JOINT Bip01_Xtra01Nub
														{
															OFFSET 6.758158 -0.395525 -0.023239
															CHANNELS 3 Xrotation Yrotation Zrotation
															End Site
															{
																OFFSET 6.764923 -0.254147 -0.029908
															}
														}
													}
													JOINT Bip01_L_Finger0Nub
													{
														OFFSET -0.012636 -9.629153 0.045740
														CHANNELS 3 Xrotation Yrotation Zrotation
														End Site
														{
															OFFSET 0.988407 0.004791 8.293357
														}
													}
												}
											}
										}
									}
								}
								JOINT BN_hair03_01
								{
									OFFSET -5.894140 16.270622 -2.498433
									CHANNELS 3 Xrotation Yrotation Zrotation
									JOINT BN_hair03_02
									{
										OFFSET -0.189278 -7.800507 -6.219162
										CHANNELS 3 Xrotation Yrotation Zrotation
										JOINT BN_hair03_03
										{
											OFFSET 0.612345 -10.844475 -3.370718
											CHANNELS 3 Xrotation Yrotation Zrotation
											End Site
											{
												OFFSET -2.273296 2.862007 -10.769416
											}
										}
									}
								}
								JOINT Bip01_Neck1
								{
									OFFSET 9.383755 11.908699 -0.000007
									CHANNELS 3 Xrotation Yrotation Zrotation
									JOINT BN_hair02_01
									{
										OFFSET 9.126320 18.808022 -1.420810
										CHANNELS 3 Xrotation Yrotation Zrotation
										JOINT BN_hair02_02
										{
											OFFSET 0.393478 -5.181091 -5.248574
											CHANNELS 3 Xrotation Yrotation Zrotation
											JOINT BN_hair02_03
											{
												OFFSET 0.762280 -8.167076 -0.230047
												CHANNELS 3 Xrotation Yrotation Zrotation
												End Site
												{
													OFFSET -0.025837 -1.251419 -8.109770
												}
											}
										}
									}
									JOINT Bip01_Head
									{
										OFFSET 14.266129 10.475403 -0.000008
										CHANNELS 3 Xrotation Yrotation Zrotation
										JOINT BN_Reins_01
										{
											OFFSET 18.547455 -15.740112 -0.000035
											CHANNELS 3 Xrotation Yrotation Zrotation
											JOINT BN_Reins_02
											{
												OFFSET -5.372810 -5.884506 0.000028
												CHANNELS 3 Xrotation Yrotation Zrotation
												JOINT BN_Reins_03
												{
													OFFSET -6.395866 -15.947449 0.000070
													CHANNELS 3 Xrotation Yrotation Zrotation
													JOINT BN_Halter_R_01
													{
														OFFSET -1.234055 -3.096100 7.096737
														CHANNELS 3 Xrotation Yrotation Zrotation
														End Site
														{
															OFFSET 10.514435 -4.176861 -0.000004
														}
													}
													JOINT BN_Halter_L_01
													{
														OFFSET -1.234062 -3.096146 -7.096726
														CHANNELS 3 Xrotation Yrotation Zrotation
														End Site
														{
															OFFSET -10.514435 4.176865 -0.000000
														}
													}
													JOINT BN_Reins_04
													{
														OFFSET -6.737644 -16.971684 0.000074
														CHANNELS 3 Xrotation Yrotation Zrotation
														JOINT BN_Halter_R_02
														{
															OFFSET -4.688869 -11.781956 7.096771
															CHANNELS 3 Xrotation Yrotation Zrotation
															End Site
															{
																OFFSET 14.669624 -5.827511 -0.000006
															}
														}
														JOINT BN_Halter_L_02
														{
															OFFSET -4.688892 -11.782017 -7.096693
															CHANNELS 3 Xrotation Yrotation Zrotation
															End Site
															{
																OFFSET -14.669624 5.827507 -0.000002
															}
														}
														JOINT BN_Reins_05
														{
															OFFSET -6.822578 -16.971161 0.000074
															CHANNELS 3 Xrotation Yrotation Zrotation
															JOINT BN_Reins_06
															{
																OFFSET -6.140354 -15.095148 0.000066
																CHANNELS 3 Xrotation Yrotation Zrotation
																End Site
																{
																	OFFSET -15.095150 6.140352 -0.000002
																}
															}
														}
													}
												}
											}
										}
										JOINT BN_hair01_01
										{
											OFFSET 8.957344 8.870956 0.112121
											CHANNELS 3 Xrotation Yrotation Zrotation
											JOINT BN_hair01_02
											{
												OFFSET 6.002075 -2.962952 -3.121264
												CHANNELS 3 Xrotation Yrotation Zrotation
												End Site
												{
													OFFSET 5.917702 3.813591 -2.232396
												}
											}
										}
										JOINT BN_Eyebrow_R
										{
											OFFSET 11.795959 -0.430496 4.449781
											CHANNELS 3 Xrotation Yrotation Zrotation
											JOINT Bip01_Xtra06Nub
											{
												OFFSET 2.936661 -0.262573 3.246701
												CHANNELS 3 Xrotation Yrotation Zrotation
												End Site
												{
													OFFSET 2.768745 0.208199 3.394807
												}
											}
										}
										JOINT BN_Eyebrow_L
										{
											OFFSET 11.586395 -0.445618 -4.441728
											CHANNELS 3 Xrotation Yrotation Zrotation
											JOINT Bip01_Xtra05Nub
											{
												OFFSET 3.244698 -0.349442 -4.416700
												CHANNELS 3 Xrotation Yrotation Zrotation
												End Site
												{
													OFFSET 3.053162 0.072495 -4.564033
												}
											}
										}
										JOINT Bip01_R_Ear_01
										{
											OFFSET 7.142960 7.567184 4.311657
											CHANNELS 3 Xrotation Yrotation Zrotation
											JOINT Bip01_Xtra04Nub
											{
												OFFSET 9.464531 9.264214 1.682953
												CHANNELS 3 Xrotation Yrotation Zrotation
												End Site
												{
													OFFSET 8.448181 10.159340 1.910823
												}
											}
										}
										JOINT Bip01__L_Ear_01
										{
											OFFSET 7.214943 7.717056 -4.356771
											CHANNELS 3 Xrotation Yrotation Zrotation
											JOINT Bip01_Xtra03Nub
											{
												OFFSET 9.230225 8.944366 -2.322746
												CHANNELS 3 Xrotation Yrotation Zrotation
												End Site
												{
													OFFSET 8.170288 9.841324 -2.643566
												}
											}
										}
										JOINT Bip01_Jaw
										{
											OFFSET 9.196068 -4.110695 -0.000013
											CHANNELS 3 Xrotation Yrotation Zrotation
											JOINT Bip01_Ponytail1Nub
											{
												OFFSET 10.976463 -21.082108 -0.000053
												CHANNELS 3 Xrotation Yrotation Zrotation
												End Site
												{
													OFFSET 11.247093 -20.938980 0.000113
												}
											}
										}
										JOINT Bip01_HeadNub
										{
											OFFSET 29.954575 -18.249489 -0.000063
											CHANNELS 3 Xrotation Yrotation Zrotation
											End Site
											{
												OFFSET -9.198448 -13.366348 0.000168
											}
										}
									}
								}
							}
						}
					}
				}
			}
		}
	}
}
MOTION
Frames: 4
Frame Time: 0.033333
0.000000 0.000000 0.000000 0.000008 0.000000 -0.000000 -0.000000 0.000000 -0.000000 1.610864 -0.420910 45.750933 -0.152595 0.326218 0.530099 1.198796 -2.579930 -33.149961 3.239755 -6.614242 24.773067 2.419848 -2.495630 55.273145 1.773444 -3.691049 32.439413 0.580523 -12.426394 0.967354 0.344213 0.343078 -9.096781 -4.195835 14.723093 -10.767012 7.981900 -2.701277 -43.617069 -4.749106 -1.336652 25.151144 6.315670 -16.114380 -1.758351 0.333332 0.535032 -4.957634 0.000101 -0.000137 0.000004 5.913708 -17.363222 7.568344 -6.959415 1.924216 -37.152414 4.446198 1.179589 23.429205 -6.235451 16.987681 -29.172745 -0.030674 0.000264 0.365958 0.008859 -0.000620 0.038562 3.368673 1.472866 8.047942 0.917530 -0.020778 6.784387 -2.751733 -0.254967 0.080599 -0.137636 0.521051 2.552729 0.000078 -0.000112 -0.000053 -0.000051 -0.014927 0.015046 8.905068 1.200304 -2.875935 -5.618710 -8.112514 9.956522 -7.904599 -5.231699 5.428416 -4.690229 -0.085819 -9.415477 -10.134465 1.203847 38.710630 -2.012692 -8.557203 1.942547 0.707852 -1.757623 47.564642 13.484726 -2.114861 -102.544574 5.922476 -2.831558 -59.408446 -0.601206 0.008261 -3.348445 -0.802182 0.160617 -0.479829 -0.804185 0.123490 -0.482624 8.844594 -1.977564 34.314075 4.466895 6.255130 0.175425 -1.276076 2.166207 64.702198 -8.990398 8.352268 -53.515403 -9.277377 -1.536614 -46.005238 -1.754078 2.335085 -0.656572 0.036623 0.063793 2.451873 -0.000914 0.100575 2.451951 10.814695 0.991232 -1.890905 -3.283586 -2.810697 8.802534 -4.710043 -3.417079 7.591193 -5.689445 -4.608469 -24.601387 0.000035 -0.000008 0.000021 -1.050428 -0.098068 8.604767 -3.229444 -1.205162 -7.243671 6.444508 8.388952 -1.572048 -0.000030 0.000324 33.480095 -0.441787 -0.458728 -72.796122 -0.000060 -0.000072 -21.993995 0.000020 -0.000008 -0.026800 0.000003 -0.000016 0.012749 -0.000096 -0.000109 -34.639882 0.000035 0.000015 0.015166 0.000025 -0.000010 0.012721 -0.000048 -0.000054 -24.223447 0.000013 -0.000013 -0.000055 -0.000135 0.000067 0.000020 3.825676 -5.331877 16.487011 0.161083 -0.014091 -0.126173 0.024205 -0.030020 11.786594 -0.136897 -0.004731 -0.092616 0.023245 -0.032338 11.715980 0.997651 -0.760422 -1.112397 0.022817 0.006873 11.753093 -0.080243 0.105973 -1.807500 0.050154 0.014735 11.743130 -0.294087 -0.091054 -0.399871 -0.004530 -0.052591 11.750709 0.000071 -0.000033 11.750677 
0.000000 0.000000 0.000000 0.000008 0.000000 -0.000000 -0.000000 0.000000 -0.000000 1.381296 -0.184506 47.373700 -0.159997 0.344087 0.555292 0.590527 -1.488998 -35.410197 3.102887 -8.329946 18.596869 4.379079 -3.804307 54.913293 1.656428 -2.906357 42.191492 0.690478 -10.720069 1.994891 0.357602 0.326714 -8.670900 -4.085404 13.726071 -12.320047 8.302486 -2.985123 -45.768729 -5.286606 -1.644998 28.275585 5.867777 -16.156189 -2.554008 0.280882 0.245109 -5.838421 0.000101 -0.000136 0.000004 6.494809 -17.398198 8.768509 -7.463085 2.284216 -40.268832 4.458838 1.185917 23.500523 -6.754617 16.566586 -29.143966 -0.042635 0.000312 0.405565 0.008859 -0.000621 0.038562 3.019813 1.092766 6.487773 0.917530 -0.020778 6.784391 -2.543456 -0.249554 0.076211 -0.135342 0.548471 3.253805 0.000077 -0.000112 -0.000056 -0.000052 -0.014928 0.015041 8.790465 1.205196 -2.843550 -6.676352 -8.412589 10.422130 -5.347256 -5.921444 6.050017 -4.416037 -0.121890 -10.126430 -10.524736 1.139613 40.122345 -1.628208 -8.735126 1.785307 0.791393 -1.835192 50.346260 13.575897 -1.946375 -98.146513 5.911984 -2.868954 -59.719199 -0.593902 0.008374 -3.399291 -0.802182 0.160617 -0.479831 -0.804184 0.123491 -0.482620 8.175599 -1.847528 33.982916 5.150387 6.179425 -0.770913 -1.273353 2.164809 64.627557 -9.840162 6.939932 -50.063361 -9.473442 -1.487184 -46.250418 -1.789978 2.335704 -0.654067 0.036622 0.063794 2.451874 -0.000913 0.100573 2.451958 10.680334 0.981135 -1.866385 -3.522082 -2.921001 9.149271 -3.776557 -3.213304 7.598437 -5.195289 -4.139783 -23.393787 0.409196 -0.080494 0.300882 -1.099508 -0.113499 9.582380 -2.404726 -0.674189 -3.586130 5.909268 7.892096 -1.552919 -0.000030 0.000324 33.480095 -0.441787 -0.458728 -72.796122 -0.000060 -0.000072 -21.993993 0.000020 -0.000008 -0.026807 0.000002 -0.000016 0.012745 -0.000096 -0.000109 -34.639882 0.000036 0.000015 0.015165 0.000025 -0.000010 0.012721 -0.000048 -0.000054 -24.223445 0.000014 -0.000013 -0.000055 -0.000185 0.000075 0.000014 3.317520 -5.732223 16.403534 0.161083 -0.014088 -0.126176 0.024203 -0.030018 11.786594 -0.136917 -0.004773 -0.092612 0.023246 -0.032335 11.715979 0.974080 -0.747343 -1.069957 0.022818 0.006871 11.753102 -0.080383 0.102123 -1.754344 0.050154 0.014734 11.743131 -0.304280 -0.091393 -0.811580 -0.004530 -0.052591 11.750710 0.000072 -0.000033 11.750679 
0.000000 0.000000 0.000000 0.000008 0.000000 -0.000000 -0.000000 0.000000 -0.000000 1.138166 0.079692 49.128642 -0.170561 0.364997 0.593661 0.094007 -0.489097 -37.394114 2.589986 -9.660163 12.818952 6.465433 -5.604518 52.324006 1.856801 -2.601605 52.601411 1.001262 -8.106156 5.345984 0.364296 0.264591 -7.733958 -3.820895 12.785688 -14.739418 8.614359 -3.282869 -47.934189 -5.863808 -2.021776 31.747925 5.399025 -16.211147 -3.607825 0.183210 -0.052734 -6.614971 0.000101 -0.000138 0.000004 6.923789 -17.462396 9.308184 -7.952203 2.675808 -43.419987 4.494580 1.203920 23.702459 -7.299731 16.079397 -29.219829 -0.056780 0.000317 0.413630 0.008859 -0.000619 0.038562 2.757867 0.666907 4.166108 0.917530 -0.020778 6.784390 -2.339223 -0.244281 0.071905 -0.130354 0.608128 4.582817 0.000078 -0.000112 -0.000053 -0.000052 -0.014927 0.015041 8.479199 1.215780 -2.754758 -7.768206 -10.050518 12.575715 -2.829262 -6.570715 6.689449 -4.125822 -0.152908 -10.764475 -10.872163 1.007228 40.886916 -1.197455 -8.686173 1.915279 0.863383 -1.896318 52.650595 13.714142 -1.699466 -91.660811 5.894961 -2.947034 -60.381502 -0.586966 0.008386 -3.449059 -0.802181 0.160616 -0.479834 -0.804184 0.123489 -0.482625 7.486536 -1.634206 32.842394 5.657838 6.093867 -2.149604 -1.249810 2.152537 63.979755 -10.850367 5.094430 -46.324126 -9.695385 -1.320131 -47.159827 -1.825493 2.336399 -0.651536 0.036623 0.063792 2.451879 -0.000914 0.100573 2.451957 10.314067 0.953400 -1.799569 -3.630911 -3.458697 11.089076 -2.492620 -2.865816 7.487153 -4.708913 -3.664593 -22.175287 1.521137 -0.246157 1.092703 -1.003111 -0.226458 14.612575 -0.971212 -0.158940 0.132182 5.281602 7.378231 -1.722971 -0.000030 0.000324 33.480091 -0.441787 -0.458727 -72.796129 -0.000060 -0.000072 -21.993993 0.000019 -0.000008 -0.026803 0.000002 -0.000016 0.012745 -0.000096 -0.000109 -34.639871 0.000035 0.000015 0.015165 0.000025 -0.000010 0.012723 -0.000048 -0.000054 -24.223440 0.000013 -0.000013 -0.000046 -0.000290 0.000114 0.000022 0.997647 -7.871294 16.500303 0.161084 -0.014088 -0.126177 0.024204 -0.030023 11.786599 -0.136930 -0.004807 -0.092618 0.023244 -0.032336 11.715977 0.950963 -0.734537 -1.028288 0.022817 0.006871 11.753100 -0.080532 0.098338 -1.702283 0.050153 0.014734 11.743132 -0.312257 -0.088773 -1.268718 -0.004530 -0.052591 11.750716 0.000071 -0.000034 11.750673 
0.000000 0.000000 0.000000 0.000008 0.000000 -0.000000 -0.000000 0.000000 -0.000000 0.881740 0.362901 50.991549 -0.186001 0.396772 0.646714 -0.322739 0.398460 -39.122210 1.877460 -10.284752 7.879617 8.052107 -8.442828 45.030198 3.399135 -2.844123 64.155113 1.419984 -6.110077 11.417642 0.369773 0.171352 -6.491027 -3.490703 11.855511 -17.790363 8.908381 -3.585271 -50.051281 -6.454095 -2.462026 35.453716 4.922394 -16.276011 -4.858325 0.047635 -0.320221 -7.258648 0.000101 -0.000137 0.000004 7.269977 -17.557867 9.425791 -8.420076 3.094488 -46.574862 4.536042 1.225001 23.937134 -7.870643 15.521200 -29.338289 -0.071051 0.000321 0.421764 0.008859 -0.000621 0.038562 2.461798 0.166331 1.191450 0.917530 -0.020778 6.784386 -2.132970 -0.238972 0.067524 -0.123468 0.690467 6.370047 0.000078 -0.000112 -0.000053 -0.000052 -0.014928 0.015045 7.991933 1.224576 -2.613616 -8.245880 -11.036858 13.898325 -1.154433 -7.466846 7.537416 -3.838841 -0.176336 -11.359509 -11.176359 0.828568 41.256719 -0.646624 -8.522745 2.298557 0.927728 -1.946922 54.648023 13.824650 -1.380022 -84.001498 5.876858 -3.025696 -61.050430 -0.579782 0.008467 -3.499384 -0.802182 0.160617 -0.479830 -0.804184 0.123489 -0.482624 6.795030 -1.358440 31.090464 6.120242 6.030487 -3.721651 -1.209332 2.130635 62.856790 -11.909774 2.862541 -42.438820 -9.936726 -1.053107 -48.635383 -1.861125 2.337015 -0.649051 0.036624 0.063792 2.451870 -0.000913 0.100573 2.451959 9.739987 0.909034 -1.695253 -3.650988 -3.777416 12.279120 -1.727802 -2.712690 7.537602 -4.261451 -3.208154 -20.986805 3.264447 -0.414311 2.314843 -1.002005 -0.289301 17.682279 -0.198019 0.274473 3.139341 4.683927 6.989145 -1.695195 -0.000030 0.000324 33.480091 -0.441787 -0.458728 -72.796122 -0.000060 -0.000072 -21.993988 0.000020 -0.000008 -0.026802 0.000002 -0.000016 0.012750 -0.000096 -0.000109 -34.639875 0.000036 0.000015 0.015165 0.000025 -0.000010 0.012721 -0.000048 -0.000054 -24.223440 0.000013 -0.000013 -0.000055 -0.000093 0.000037 0.000029 -0.829768 -9.049291 15.932147 0.161083 -0.014088 -0.126174 0.024204 -0.030025 11.786591 -0.136949 -0.004868 -0.092616 0.023243 -0.032341 11.715977 0.927599 -0.721619 -0.986229 0.022818 0.006872 11.753100 -0.080641 0.094556 -1.648381 0.050155 0.014732 11.743129 -0.322450 -0.088724 -1.774225 -0.004530 -0.052591 11.750712 0.000071 -0.000033 11.750677 
